name ../AP_Laxity/ap_30.mot
datacolumns   7
datarows 100
range   14.00000000 14.99000000
cursor 1.0 1.0 0.0
keys m_key
wrap
enforce_loops no
enforce_constraints no
calc_derivatives -1.000000
event_color 0.000000 0.000000 0.000000
endheader
            time femur_r_force_vx femur_r_force_vy femur_r_force_vz femur_r_force_px femur_r_force_py femur_r_force_pz 
     14.00000000      -1.92375394       1.11067986       0.00000000      -0.03798529      -0.50443412       0.00000000 
     14.01000000      -1.86062262       1.07423097       0.00000000      -0.03798529      -0.50443412       0.00000000 
     14.02000000      -1.79852180       1.03837704       0.00000000      -0.03798529      -0.50443412       0.00000000 
     14.03000000      -1.73745301       1.00311896       0.00000000      -0.03798529      -0.50443412       0.00000000 
     14.04000000      -1.67741777       0.96845760       0.00000000      -0.03798529      -0.50443412       0.00000000 
     14.05000000      -1.61841758       0.93439383       0.00000000      -0.03798529      -0.50443412       0.00000000 
     14.06000000      -1.56045391       0.90092848       0.00000000      -0.03798529      -0.50443412       0.00000000 
     14.07000000      -1.50352819       0.86806240       0.00000000      -0.03798529      -0.50443412       0.00000000 
     14.08000000      -1.44764184       0.83579640       0.00000000      -0.03798529      -0.50443412       0.00000000 
     14.09000000      -1.39279625       0.80413129       0.00000000      -0.03798529      -0.50443412       0.00000000 
     14.10000000      -1.33899278       0.77306784       0.00000000      -0.03798529      -0.50443412       0.00000000 
     14.11000000      -1.28623278       0.74260684       0.00000000      -0.03798529      -0.50443412       0.00000000 
     14.12000000      -1.23451755       0.71274904       0.00000000      -0.03798529      -0.50443412       0.00000000 
     14.13000000      -1.18384839       0.68349519       0.00000000      -0.03798529      -0.50443412       0.00000000 
     14.14000000      -1.13422654       0.65484600       0.00000000      -0.03798529      -0.50443412       0.00000000 
     14.15000000      -1.08565325       0.62680220       0.00000000      -0.03798529      -0.50443412       0.00000000 
     14.16000000      -1.03812972       0.59936447       0.00000000      -0.03798529      -0.50443412       0.00000000 
     14.17000000      -0.99165713       0.57253351       0.00000000      -0.03798529      -0.50443412       0.00000000 
     14.18000000      -0.94623664       0.54630998       0.00000000      -0.03798529      -0.50443412       0.00000000 
     14.19000000      -0.90186939       0.52069453       0.00000000      -0.03798529      -0.50443412       0.00000000 
     14.20000000      -0.85855646       0.49568780       0.00000000      -0.03798529      -0.50443412       0.00000000 
     14.21000000      -0.81629894       0.47129042       0.00000000      -0.03798529      -0.50443412       0.00000000 
     14.22000000      -0.77509789       0.44750297       0.00000000      -0.03798529      -0.50443412       0.00000000 
     14.23000000      -0.73495432       0.42432607       0.00000000      -0.03798529      -0.50443412       0.00000000 
     14.24000000      -0.69586923       0.40176029       0.00000000      -0.03798529      -0.50443412       0.00000000 
     14.25000000      -0.65784359       0.37980617       0.00000000      -0.03798529      -0.50443412       0.00000000 
     14.26000000      -0.62087836       0.35846429       0.00000000      -0.03798529      -0.50443412       0.00000000 
     14.27000000      -0.58497444       0.33773515       0.00000000      -0.03798529      -0.50443412       0.00000000 
     14.28000000      -0.55013274       0.31761929       0.00000000      -0.03798529      -0.50443412       0.00000000 
     14.29000000      -0.51635412       0.29811719       0.00000000      -0.03798529      -0.50443412       0.00000000 
     14.30000000      -0.48363941       0.27922934       0.00000000      -0.03798529      -0.50443412       0.00000000 
     14.31000000      -0.45198944       0.26095622       0.00000000      -0.03798529      -0.50443412       0.00000000 
     14.32000000      -0.42140498       0.24329828       0.00000000      -0.03798529      -0.50443412       0.00000000 
     14.33000000      -0.39188681       0.22625596       0.00000000      -0.03798529      -0.50443412       0.00000000 
     14.34000000      -0.36343565       0.20982967       0.00000000      -0.03798529      -0.50443412       0.00000000 
     14.35000000      -0.33605221       0.19401983       0.00000000      -0.03798529      -0.50443412       0.00000000 
     14.36000000      -0.30973718       0.17882684       0.00000000      -0.03798529      -0.50443412       0.00000000 
     14.37000000      -0.28449119       0.16425107       0.00000000      -0.03798529      -0.50443412       0.00000000 
     14.38000000      -0.26031490       0.15029288       0.00000000      -0.03798529      -0.50443412       0.00000000 
     14.39000000      -0.23720889       0.13695262       0.00000000      -0.03798529      -0.50443412       0.00000000 
     14.40000000      -0.21517374       0.12423062       0.00000000      -0.03798529      -0.50443412       0.00000000 
     14.41000000      -0.19421000       0.11212719       0.00000000      -0.03798529      -0.50443412       0.00000000 
     14.42000000      -0.17431818       0.10064265       0.00000000      -0.03798529      -0.50443412       0.00000000 
     14.43000000      -0.15549879       0.08977727       0.00000000      -0.03798529      -0.50443412       0.00000000 
     14.44000000      -0.13775230       0.07953133       0.00000000      -0.03798529      -0.50443412       0.00000000 
     14.45000000      -0.12107913       0.06990507       0.00000000      -0.03798529      -0.50443412       0.00000000 
     14.46000000      -0.10547972       0.06089874       0.00000000      -0.03798529      -0.50443412       0.00000000 
     14.47000000      -0.09095444       0.05251257       0.00000000      -0.03798529      -0.50443412       0.00000000 
     14.48000000      -0.07750365       0.04474676       0.00000000      -0.03798529      -0.50443412       0.00000000 
     14.49000000      -0.06512770       0.03760150       0.00000000      -0.03798529      -0.50443412       0.00000000 
     14.50000000      -0.05382689       0.03107697       0.00000000      -0.03798529      -0.50443412       0.00000000 
     14.51000000       0.00000000       0.00000000       0.00000000      -0.03798529      -0.50443412       0.00000000 
     14.52000000       0.00000000       0.00000000       0.00000000      -0.03798529      -0.50443412       0.00000000 
     14.53000000       0.00000000       0.00000000       0.00000000      -0.03798529      -0.50443412       0.00000000 
     14.54000000       0.00000000       0.00000000       0.00000000      -0.03798529      -0.50443412       0.00000000 
     14.55000000       0.00000000       0.00000000       0.00000000      -0.03798529      -0.50443412       0.00000000 
     14.56000000       0.00000000       0.00000000       0.00000000      -0.03798529      -0.50443412       0.00000000 
     14.57000000       0.00000000       0.00000000       0.00000000      -0.03798529      -0.50443412       0.00000000 
     14.58000000       0.00000000       0.00000000       0.00000000      -0.03798529      -0.50443412       0.00000000 
     14.59000000       0.00000000       0.00000000       0.00000000      -0.03798529      -0.50443412       0.00000000 
     14.60000000       0.00000000       0.00000000       0.00000000      -0.03798529      -0.50443412       0.00000000 
     14.61000000       0.00000000       0.00000000       0.00000000      -0.03798529      -0.50443412       0.00000000 
     14.62000000       0.00000000       0.00000000       0.00000000      -0.03798529      -0.50443412       0.00000000 
     14.63000000       0.00000000       0.00000000       0.00000000      -0.03798529      -0.50443412       0.00000000 
     14.64000000       0.00000000       0.00000000       0.00000000      -0.03798529      -0.50443412       0.00000000 
     14.65000000       0.00000000       0.00000000       0.00000000      -0.03798529      -0.50443412       0.00000000 
     14.66000000       0.00000000       0.00000000       0.00000000      -0.03798529      -0.50443412       0.00000000 
     14.67000000       0.00000000       0.00000000       0.00000000      -0.03798529      -0.50443412       0.00000000 
     14.68000000       0.00000000       0.00000000       0.00000000      -0.03798529      -0.50443412       0.00000000 
     14.69000000       0.00000000       0.00000000       0.00000000      -0.03798529      -0.50443412       0.00000000 
     14.70000000       0.00000000       0.00000000       0.00000000      -0.03798529      -0.50443412       0.00000000 
     14.71000000       0.00000000       0.00000000       0.00000000      -0.03798529      -0.50443412       0.00000000 
     14.72000000       0.00000000       0.00000000       0.00000000      -0.03798529      -0.50443412       0.00000000 
     14.73000000       0.00000000       0.00000000       0.00000000      -0.03798529      -0.50443412       0.00000000 
     14.74000000       0.00000000       0.00000000       0.00000000      -0.03798529      -0.50443412       0.00000000 
     14.75000000       0.00000000       0.00000000       0.00000000      -0.03798529      -0.50443412       0.00000000 
     14.76000000       0.00000000       0.00000000       0.00000000      -0.03798529      -0.50443412       0.00000000 
     14.77000000       0.00000000       0.00000000       0.00000000      -0.03798529      -0.50443412       0.00000000 
     14.78000000       0.00000000       0.00000000       0.00000000      -0.03798529      -0.50443412       0.00000000 
     14.79000000       0.00000000       0.00000000       0.00000000      -0.03798529      -0.50443412       0.00000000 
     14.80000000       0.00000000       0.00000000       0.00000000      -0.03798529      -0.50443412       0.00000000 
     14.81000000       0.00000000       0.00000000       0.00000000      -0.03798529      -0.50443412       0.00000000 
     14.82000000       0.00000000       0.00000000       0.00000000      -0.03798529      -0.50443412       0.00000000 
     14.83000000       0.00000000       0.00000000       0.00000000      -0.03798529      -0.50443412       0.00000000 
     14.84000000       0.00000000       0.00000000       0.00000000      -0.03798529      -0.50443412       0.00000000 
     14.85000000       0.00000000       0.00000000       0.00000000      -0.03798529      -0.50443412       0.00000000 
     14.86000000       0.00000000       0.00000000       0.00000000      -0.03798529      -0.50443412       0.00000000 
     14.87000000       0.00000000       0.00000000       0.00000000      -0.03798529      -0.50443412       0.00000000 
     14.88000000       0.00000000       0.00000000       0.00000000      -0.03798529      -0.50443412       0.00000000 
     14.89000000       0.00000000       0.00000000       0.00000000      -0.03798529      -0.50443412       0.00000000 
     14.90000000       0.00000000       0.00000000       0.00000000      -0.03798529      -0.50443412       0.00000000 
     14.91000000       0.00000000       0.00000000       0.00000000      -0.03798529      -0.50443412       0.00000000 
     14.92000000       0.00000000       0.00000000       0.00000000      -0.03798529      -0.50443412       0.00000000 
     14.93000000       0.00000000       0.00000000       0.00000000      -0.03798529      -0.50443412       0.00000000 
     14.94000000       0.00000000       0.00000000       0.00000000      -0.03798529      -0.50443412       0.00000000 
     14.95000000       0.00000000       0.00000000       0.00000000      -0.03798529      -0.50443412       0.00000000 
     14.96000000       0.00000000       0.00000000       0.00000000      -0.03798529      -0.50443412       0.00000000 
     14.97000000       0.00000000       0.00000000       0.00000000      -0.03798529      -0.50443412       0.00000000 
     14.98000000       0.00000000       0.00000000       0.00000000      -0.03798529      -0.50443412       0.00000000 
     14.99000000       0.00000000       0.00000000       0.00000000      -0.03798529      -0.50443412       0.00000000 
